<svg width="40" height="40" viewBox="0 0 40 40" fill="none" xmlns="http://www.w3.org/2000/svg">
<g clip-path="url(#clip0_168_963)">
<path d="M39.6719 18.0448C34.803 19.5858 27.5815 15.3283 22.7537 11.8091C21.598 10.9666 20.5559 10.1854 19.7361 9.50781L19.6719 9.61916C25.7393 14.0361 37.9994 23.7979 38.5643 27.2127" stroke="#3647DF" stroke-width="0.5" stroke-linecap="round"/>
<path d="M16.6228 7.52042C16.4057 7.51222 16.417 7.56258 16.417 7.56258C16.417 7.56258 16.3667 7.57386 16.4663 7.76678C16.513 7.85704 16.7308 8.02101 16.9498 8.16996C17.0758 8.26107 17.2324 8.37078 17.4216 8.49714C17.4297 8.59753 17.4433 8.76478 17.4599 8.96232L17.3133 8.86914C17.2756 8.84507 17.2255 8.85632 17.2018 8.89403L17.185 8.92048C17.1609 8.95822 17.1722 9.00829 17.2099 9.03203L17.4805 9.20383C17.4907 9.32317 17.5018 9.44714 17.5129 9.57016L17.3791 9.48527C17.3413 9.46121 17.2913 9.47245 17.2675 9.51016L17.2508 9.53662C17.2267 9.57439 17.238 9.62442 17.2756 9.64816L17.5354 9.81294C17.573 10.2098 17.6098 10.5487 17.6307 10.6021C17.6307 10.6021 17.7388 10.7141 17.7811 10.7348C17.8234 10.7555 17.8342 10.7191 17.8229 10.6688C17.8166 10.6404 17.8819 10.2015 17.9414 9.81547L17.9472 9.81924C17.9625 9.82901 17.9828 9.82439 17.9923 9.80921L17.9991 9.79835C18.0088 9.78307 18.0042 9.76271 17.989 9.75324L17.9542 9.73121C17.9608 9.68921 17.967 9.64855 17.9731 9.60953L17.9811 9.61452C17.9964 9.62432 18.0167 9.6197 18.0262 9.60449L18.033 9.59363C18.0427 9.57839 18.0381 9.55799 18.0229 9.54852L17.9863 9.52524C17.9922 9.48819 17.9975 9.45347 18.0024 9.42173L18.01 9.42678C18.0253 9.43658 18.0457 9.43196 18.0551 9.41675L18.0619 9.40589C18.0717 9.39065 18.067 9.37026 18.0518 9.36078L18.0156 9.33773C18.0257 9.27455 18.032 9.23419 18.0331 9.22789C18.0345 9.2196 18.0404 9.20055 18.0485 9.17596L18.0623 9.18471C18.0909 9.20271 18.1286 9.19432 18.1467 9.16603L18.1595 9.14606C18.1774 9.11744 18.1691 9.07973 18.1407 9.06166L18.0991 9.03544C18.1112 9.00304 18.1223 8.97307 18.1304 8.95203C18.3349 9.07819 18.5614 9.21357 18.81 9.35753C18.81 9.35753 19.0206 9.47232 19.2658 9.58314L19.3387 10.393C19.3387 10.393 19.4539 10.6205 19.5118 10.5583C19.5118 10.5583 19.5883 10.156 19.6057 10.0992C19.6189 10.0564 19.6614 9.84593 19.6815 9.74494C19.6995 9.75039 19.7171 9.75524 19.7343 9.75986C19.8121 9.78832 19.8765 9.80917 19.8765 9.80917L19.885 9.79576L19.9833 9.85809C19.9953 9.8656 20.0111 9.86212 20.0186 9.85016C20.0261 9.83822 20.0226 9.82245 20.0106 9.81494L19.9123 9.75262L19.9208 9.73917C19.9208 9.73917 19.8747 9.68996 19.8157 9.63147C19.8042 9.6178 19.7924 9.60383 19.7796 9.59006C19.8625 9.52888 20.0349 9.40117 20.068 9.37078C20.1119 9.33075 20.4437 9.09048 20.4437 9.09048C20.4752 9.01157 20.2203 9.00435 20.2203 9.00435L19.4564 9.28311C19.2521 9.10835 19.0582 8.96678 19.0582 8.96678C18.8221 8.80291 18.6035 8.65583 18.4021 8.52426C18.4178 8.50796 18.4401 8.4853 18.4643 8.46039L18.5059 8.48665C18.5346 8.50465 18.5723 8.49626 18.5903 8.46793L18.6031 8.44796C18.6211 8.41934 18.6127 8.38163 18.5844 8.3636L18.5706 8.35481C18.5893 8.33701 18.6042 8.3234 18.611 8.31865C18.6162 8.31514 18.6499 8.29203 18.7029 8.25616L18.7392 8.27921C18.7545 8.28898 18.7749 8.28435 18.7844 8.26917L18.7911 8.25832C18.8008 8.24304 18.7962 8.22268 18.781 8.21321L18.7734 8.20816C18.8 8.19016 18.8289 8.17052 18.8599 8.14953L18.8966 8.17281C18.9118 8.18262 18.9322 8.17799 18.9417 8.16278L18.9484 8.15193C18.9582 8.13668 18.9535 8.11629 18.9384 8.10681L18.9304 8.10183C18.963 8.07957 18.9974 8.05665 19.0324 8.03301L19.0672 8.05504C19.0825 8.06485 19.1028 8.06019 19.1123 8.04501L19.1191 8.03416C19.1288 8.01891 19.1242 7.99852 19.109 7.98904L19.1032 7.98527C19.4274 7.76694 19.7968 7.52117 19.8249 7.51485C19.8753 7.50353 19.9036 7.47855 19.8667 7.44885C19.8299 7.41914 19.6827 7.36914 19.6827 7.36914C19.6256 7.37327 19.3029 7.48399 18.9281 7.61888L18.6684 7.45412C18.6306 7.43006 18.5806 7.4413 18.5568 7.47901L18.54 7.50547C18.516 7.54324 18.5272 7.59327 18.5649 7.61701L18.6987 7.70189C18.5827 7.74432 18.4657 7.78721 18.3532 7.82862L18.0826 7.65681C18.0448 7.63275 17.9948 7.64399 17.9711 7.68167L17.9543 7.70816C17.9302 7.74589 17.9415 7.79596 17.9792 7.8197L18.1258 7.91291C17.9399 7.98199 17.7827 8.04078 17.6885 8.07603C17.4935 7.95875 17.3276 7.86357 17.1916 7.78839C16.9652 7.6517 16.7244 7.52403 16.6228 7.52042Z" fill="#3647DF"/>
<path d="M26.5576 24.2283C27.5574 23.626 28.2531 23.4633 29.92 23.7283L36.336 27.2698C36.732 27.4883 37.1199 27.7263 37.4517 28.0317C37.8806 28.4264 38.1524 28.801 38.3566 29.2653C38.6465 29.9237 38.6888 30.6567 38.6888 31.3747V38.3596H36.4471V32.7517C36.4471 31.7312 36.136 30.7343 35.554 29.8915C35.1153 29.255 34.535 28.7259 33.8583 28.3443L26.5576 24.2283Z" fill="#3647DF"/>
<path d="M15.082 33.4225C15.082 31.8859 15.9029 30.4654 17.2369 29.6931L24.918 25.2461L32.6206 29.7055C33.9414 30.4702 34.7542 31.8765 34.7542 33.3976V38.3608H32.5226C32.6345 35.1494 32.5318 33.7618 31.9376 32.2564C29.6647 30.4501 28.2255 29.5008 25.8744 28.699C25.2557 28.488 24.5821 28.4939 23.9636 28.7055C21.2969 29.6178 19.9324 30.5212 17.9852 32.2564C17.1345 33.2497 17.1185 34.8507 17.2919 38.3608H15.082V33.4225Z" fill="#3647DF"/>
<path d="M23.9346 32.5929C23.9346 31.9753 24.4483 31.4746 25.0821 31.4746C25.7159 31.4746 26.2297 31.9753 26.2297 32.5929V38.3599H23.9346V32.5929Z" fill="#3647DF"/>
<path d="M2.95554 4.34546C4.09882 3.54844 4.67348 3.36775 5.66062 3.2928C5.78085 2.50455 5.97695 2.13384 6.66249 1.63867C7.31318 2.11589 7.58623 2.44249 7.66436 3.2928C8.88374 3.37998 9.45039 3.63002 10.2692 4.34546C10.1499 5.60274 9.96151 6.18789 9.36757 7.00211L9.41764 11.8142C9.29266 11.9309 9.21 11.9808 9.01692 12.0147L11.7477 37.3528C11.7617 37.4826 11.8688 37.5826 11.9992 37.5875L12.7309 37.6157C12.9228 37.6229 13.0745 37.781 13.0745 37.9731C13.0745 38.1705 12.9145 38.3308 12.7171 38.3308H0.382534C0.171267 38.3308 0 38.1593 0 37.9479C0 37.7718 0.142722 37.6288 0.318779 37.6288H1.603L4.50846 12.1149C4.12528 12.0221 3.9041 11.9786 3.85725 11.4132V6.70136C3.2213 5.79808 3.02068 5.29552 2.95554 4.34546Z" fill="#3647DF"/>
</g>
<defs>
<clipPath id="clip0_168_963">
<rect width="40" height="40" fill="white"/>
</clipPath>
</defs>
</svg>
